<?xml version="1.0" encoding="UTF-8"?>
<!-- Created with Inkscape (http://www.inkscape.org/) -->
<svg width="512" height="512" version="1.1" viewBox="0 0 512 512" xmlns="http://www.w3.org/2000/svg" xmlns:cc="http://creativecommons.org/ns#" xmlns:dc="http://purl.org/dc/elements/1.1/" xmlns:rdf="http://www.w3.org/1999/02/22-rdf-syntax-ns#">
 <metadata>
  <rdf:RDF>
   <cc:Work rdf:about="">
    <dc:format>image/svg+xml</dc:format>
    <dc:type rdf:resource="http://purl.org/dc/dcmitype/StillImage"/>
   </cc:Work>
  </rdf:RDF>
 </metadata>
 <defs>
  <clipPath id="clipPath1217">
   <path d="m1483.4 1857.9c-51.963 0.088-96.081 35.309-103.87 82.928h0.059a103.9 26.539 0 0 0-0.021 0.1055 103.9 26.539 0 0 0 103.9 26.539 103.9 26.539 0 0 0 103.9-26.539 103.9 26.539 0 0 0-0.016-0.1055h0.053c-0.079-0.4799-0.1661-0.9561-0.252-1.4336a103.9 26.539 0 0 0-0.066-0.3789c-8.6074-46.744-52.335-81.093-103.69-81.115zm0.07 55.975c24.089 0 46.927 1.2725 65.453 6.4727a103.9 26.539 0 0 0-65.455-5.9532 103.9 26.539 0 0 0-64.094 5.6602c18.264-4.9174 40.573-6.1519 64.096-6.1797z" stroke="#000" stroke-linecap="square" stroke-linejoin="round" stroke-width="20"/>
  </clipPath>
 </defs>
 <rect x="551.57" y="2.1919" width="561.5" height="3844.9" fill="#999" stroke="#fff" stroke-linecap="square" stroke-linejoin="round" stroke-width="13.062"/>
 <g transform="translate(-26.611 814.36)">
  <path d="m336.99 634.86c33.336 18.843 42.07 30.968 55.118 52.689 22.544 37.527 37.72 80.458 45.019 123.51 8.3323 49.142 34.783 148.91 7.5676 149.34-94.195 1.4878-266.31 1.3124-276.23 1.4702-23.13 0.368-8.4625-19.082 20.989-66.408 21.556-34.639 52.408-63.771 69.16-100.98 4.7863-10.63-0.67863-26.272-15.578-14.678-34.555 26.89-22.79 8.339-92.726 81.402-3.8999 4.0742-36.072 17.21-35.22 5.2375 0.27002-3.7938 16.313-19.91 5.2584-26.76-8.3781-5.1916-13.362 19.727-13.362 19.727-11.379 15.524-37.328-8.3476-40.901-26.341-3.5353-17.802-5.6672-34.097 4.7138-51.637 126.74-214.15 72.918-125.6 86.807-195.02 3.4039-17.013 25.79 26.609 43.972 28.523 20.322 2.1386 22.112-32.596 38.667-34.762 11.718-1.5333 21.262 29.525 22.026 31.648 56.928 12.853 55.352 13.768 74.715 23.035z" fill="#fff" stroke="#000" stroke-linecap="round" stroke-linejoin="round" stroke-width="15"/>
  <g>
   <ellipse cx="89.328" cy="797.95" rx="8.2519" ry="8.7464"/>
   <ellipse cx="169.37" cy="694.35" rx="12.85" ry="11.969"/>
   <path d="m163.22 679.36a18.549 22.609 83.736 0 0-12.767 23.434 23.617 28.896 83.369 0 1 17.235-17.8 23.617 28.896 83.369 0 1 21.92-0.82607 18.549 22.609 83.736 0 0-26.389-4.808z" stroke="#000" stroke-linecap="round" stroke-linejoin="round" stroke-width="5"/>
   <path d="m176.81 611.96a18.095 30.594 87.745 0 0-17.3 22.828 23.044 39.094 87.586 0 1 23.356-17.34 23.044 39.094 87.586 0 1 29.704-0.8047 18.095 30.594 87.745 0 0-35.759-4.6836z" stroke="#000" stroke-linecap="round" stroke-linejoin="round" stroke-width="5"/>
  </g>
 </g>
 <g transform="matrix(.89381 0 0 .89471 146.5 936.29)" fill="#fff" stroke="#000">
  <path d="m127.14 1466.4c-1.2264 3.4167-2.4696 6.6792-3.7197 9.8681l-19.26 14.142c1.7216 5.531 3.4556 10.708 5.1996 15.708-29.668 51.12-71.574 53.903-161.79 24.323l-34.243 24.783 1.1482 49.689 43.614-4.6222c96.308 1.9115 141.87 4.0114 173.91-45.21 32.045 49.222 77.604 47.121 173.91 45.21l43.616 4.6222 1.1482-49.689-34.246-24.783c-90.217 29.58-132.12 26.797-161.79-24.321 1.7442-5.0007 3.4757-10.178 5.1975-15.71l-19.26-14.142c-1.2501-3.1889-2.4912-6.4514-3.7176-9.8681l-4.8616 3.5686z" stroke-linecap="square" stroke-linejoin="round" stroke-width="16.774"/>
  <g transform="matrix(1.1822 0 0 1.1758 -24.055 -272.52)" stroke-width="14.227">
   <path d="m47.319 1381.2s83.718 83.481 83.845 84.262c0.1267 0.7817 83.845-84.262 83.845-84.262l-83.845-139.33z"/>
   <g stroke-linecap="square" stroke-linejoin="round">
    <ellipse cx="132" cy="1231.3" rx="28.604" ry="28.15"/>
    <path d="m131.93 1417.5c-49.175 0.084-90.927 33.565-98.297 78.829h4.5049c16.748-21.767 53.422-25.574 93.858-25.621 40.508 0 77.28 3.8158 94.059 25.621h4.304c-7.378-45.311-49.203-78.808-98.428-78.829z"/>
    <ellipse cx="132" cy="1496.4" rx="98.326" ry="25.227"/>
    <path d="m129.34 1339.2v21.011h-21.013v3.623h21.013v21.011h3.6214v-21.011h21.013v-3.623h-21.013v-21.011z"/>
   </g>
  </g>
 </g>
 <g transform="matrix(.92775 0 0 .9286 137.06 505.31)" fill="#fff" stroke="#000" stroke-linecap="square" stroke-linejoin="round" stroke-width="16.161">
  <rect x="46.08" y="2276.5" width="213.02" height="173.68"/>
  <path d="m2.916 2246.9h299.35l-17.916 25.634h-263.52z"/>
  <path d="m2.9157 2167.1v79.8h299.35v-79.8h-44.739v46.806h-70.039v-46.806h-70.057v46.806h-70.039v-46.806z"/>
  <path d="m4.5514 2482.8h296.08l-17.72-32.095h-260.64z"/>
  <rect x="5.0652" y="2485.2" width="295.05" height="45.161"/>
  <rect x="-25.137" y="2528.9" width="355.46" height="36.501"/>
 </g>
 <g transform="translate(34.918 598.36)" fill="#fff" stroke="#000" stroke-width="15">
  <path d="m432.3 2648.5c-56.161-11.077-116-16.774-176.38-16.792-60.397 0.075-120.23 5.83-176.36 16.964l23.431 53.366c53.807-10.114 95.434-11.754 152.93-11.822 57.508 0.1361 99.181 1.4916 152.95 11.675z" stroke-linecap="square"/>
  <path d="m424.19 2804.2c-53.579 11.077-110.66 16.773-168.27 16.792-57.62-0.075-114.7-5.83-168.25-16.964l22.353-53.366c152.45-44.38 153.89-44.584 291.81 0.1467z" stroke-linecap="round" stroke-linejoin="round"/>
  <path d="m408.87 2701.9a417.04 205.06 0 0 0-152.95-14.339 417.04 205.06 0 0 0-152.93 14.486l6.9857 48.622a417.04 205.06 0 0 1 145.94-13.146 417.04 205.06 0 0 1 145.92 13.325z" stroke-linecap="square"/>
  <ellipse cx="255.93" cy="2803.1" rx="167.33" ry="24.118" stroke-linecap="square"/>
  <g stroke-linecap="round" stroke-linejoin="round">
   <path d="m75.828 2642.9-4.8464-157.63 83.519 149.88z"/>
   <path d="m154.5 2635.2 17.057-162.4 52.675 157.6z"/>
   <path d="m434.3 2642.5 4.8464-155.63-83.519 149.88z"/>
   <path d="m355.62 2636.8-17.057-162.4-52.675 157.6z"/>
   <path d="m285.89 2632-32.915-191.56-28.743 190z"/>
   <ellipse cx="68.076" cy="2479.6" rx="17.762" ry="17.778"/>
   <ellipse cx="170.04" cy="2466.5" rx="17.762" ry="17.778"/>
   <ellipse transform="scale(-1,1)" cx="-441.11" cy="2481.2" rx="17.762" ry="17.778"/>
   <ellipse transform="scale(-1,1)" cx="-339.15" cy="2468.1" rx="17.762" ry="17.778"/>
   <ellipse cx="253.2" cy="2440.2" rx="17.762" ry="17.778"/>
  </g>
 </g>
 <g transform="matrix(.86471 0 0 .86549 603.24 718.18)" stroke="#fff" stroke-width="23.119">
  <path d="m470.05 2594.8c-64.948-12.798-134.15-19.38-203.98-19.402-69.847 0.087-139.04 6.736-203.95 19.6l27.096 61.66c62.225-11.685 110.36-13.581 176.85-13.659 66.505 0.1573 114.7 1.7234 176.88 13.489z" stroke-linecap="square"/>
  <path d="m460.67 2774.8c-61.961 12.798-127.98 19.38-194.6 19.402-66.635-0.087-132.64-6.736-194.57-19.6l25.85-61.66c176.3-51.277 177.96-51.513 337.47 0.1695z" stroke-linecap="round" stroke-linejoin="round"/>
  <path d="m442.95 2656.5a482.29 236.93 0 0 0-176.88-16.568 482.29 236.93 0 0 0-176.85 16.737l8.0786 56.179a482.29 236.93 0 0 1 168.78-15.189 482.29 236.93 0 0 1 168.75 15.396z" stroke-linecap="square"/>
  <ellipse cx="266.09" cy="2773.5" rx="193.5" ry="27.866" stroke-linecap="square"/>
  <g stroke-linecap="round" stroke-linejoin="round">
   <path d="m60.126 2593-7.9175-186.74 96.585 173.18z"/>
   <path d="m148.79 2579.5 19.726-187.64 60.917 182.09z"/>
   <path d="m470.05 2594.8 7.9175-186.74-96.585 173.18z"/>
   <path d="m381.38 2581.3-19.726-187.64-60.917 182.09z"/>
   <path d="m300.74 2575.7-38.064-221.33-33.24 219.53z"/>
   <circle cx="48.847" cy="2399.8" r="20.541"/>
   <circle cx="166.76" cy="2384.6" r="20.541"/>
   <circle transform="scale(-1,1)" cx="-480.25" cy="2401.5" r="20.541"/>
   <circle transform="scale(-1,1)" cx="-362.33" cy="2386.4" r="20.541"/>
   <circle cx="262.94" cy="2354.2" r="20.541"/>
  </g>
 </g>
 <g transform="translate(-.70364 18.041)" fill="#fff" stroke="#000">
  <g stroke-linejoin="round">
   <ellipse cx="256" cy="172.31" rx="35.3" ry="76.074" stroke-linecap="round" stroke-width="15"/>
   <path d="m265.68 348.09c37.211 106.01 91.214 78.683 114.75 20.832 32.052-78.785 103.36-115.83 76.12-167.96-27.236-52.135-92.042-61.461-144.75-20.832-52.707 40.63-66.058 111.17-46.12 167.96z" stroke-linecap="square" stroke-width="18.876"/>
   <path d="m247.73 348.09c-37.211 106.01-91.214 78.683-114.75 20.832-32.052-78.785-103.36-115.83-76.12-167.96 27.236-52.135 92.042-61.461 144.75-20.832 52.707 40.63 66.058 111.17 46.12 167.96z" stroke-linecap="square" stroke-width="18.876"/>
  </g>
  <g transform="matrix(.81717 0 0 .59175 52.204 -1608.3)" stroke-width="21.571">
   <path d="m439.07 3252.6c-60.535-11.928-125.03-18.063-190.12-18.083-65.101 0.081-129.59 6.2783-190.09 18.268l25.255 57.47c57.997-10.891 102.87-12.658 164.84-12.731 61.986 0.1466 106.9 1.6063 164.86 12.573z" stroke-linecap="square"/>
   <path d="m430.33 3420.3c-57.751 11.928-119.28 18.063-181.38 18.083-62.107-0.081-123.63-6.2782-181.35-18.268l24.094-57.47c164.32-47.792 165.87-48.012 314.54 0.158z" stroke-linecap="round" stroke-linejoin="round"/>
   <path d="m413.82 3310.1a449.52 220.83 0 0 0-164.86-15.442 449.52 220.83 0 0 0-164.84 15.6l7.5297 52.361a449.52 220.83 0 0 1 157.31-14.157 449.52 220.83 0 0 1 157.28 14.35z" stroke-linecap="square"/>
   <ellipse cx="248.97" cy="3419.1" rx="180.36" ry="25.973" stroke-linecap="square"/>
  </g>
  <path d="m254.5 46.706v17.403h-17.397v3.0008h17.397v17.403h2.9983v-17.403h17.397v-3.0008h-17.397v-17.403z" stroke-linecap="square" stroke-linejoin="round" stroke-width="15"/>
 </g>
 <g>
  <g transform="matrix(.82793 0 0 .82827 620.05 789.05)" stroke="#fff">
   <ellipse cx="256" cy="3121.5" rx="28.059" ry="45.688" stroke-linecap="round" stroke-linejoin="round" stroke-width="24.152"/>
   <path d="m138.88 3095.3c-77.104-6e-4 -139.61 56.766-139.61 126.79 3.2838e-4 70.023 62.505 96.788 139.61 96.788 47.302-0.049 91.359 8.1531 117.05-27.915 25.72 36.103 69.837 27.906 117.19 27.915 77.102-6e-4 139.6-26.765 139.61-96.788 1e-3 -70.024-62.502-126.79-139.61-126.79-47.303 0.048-91.361 21.846-117.06 57.915-25.72-36.103-69.835-57.906-117.18-57.915z" stroke-linecap="round" stroke-linejoin="round" stroke-width="24.152"/>
   <g transform="matrix(.98701 0 0 .71444 9.8475 983.78)" stroke-width="28.761">
    <path d="m439.07 3252.6c-60.535-11.928-125.03-18.063-190.12-18.083-65.101 0.081-129.59 6.2783-190.09 18.268l25.255 57.47c57.997-10.891 102.87-12.658 164.84-12.731 61.986 0.1466 106.9 1.6063 164.86 12.573z" stroke-linecap="square"/>
    <path d="m430.33 3420.3c-57.751 11.928-119.28 18.063-181.38 18.083-62.107-0.081-123.63-6.2782-181.35-18.268l24.094-57.47c164.32-47.792 165.87-48.012 314.54 0.158z" stroke-linecap="round" stroke-linejoin="round"/>
    <path d="m413.82 3310.1a449.52 220.83 0 0 0-164.86-15.442 449.52 220.83 0 0 0-164.84 15.6l7.5297 52.361a449.52 220.83 0 0 1 157.31-14.157 449.52 220.83 0 0 1 157.28 14.35z" stroke-linecap="square"/>
    <ellipse cx="248.97" cy="3419.1" rx="180.36" ry="25.973" stroke-linecap="square"/>
   </g>
   <g stroke-width="24.152">
    <path d="m256.05 3280.7v-121.23c0-16.8-11.826-21.779-11.826-21.779"/>
    <path d="m257.18 3292v-133.06c0-16.8 11.826-21.779 11.826-21.779"/>
    <path d="m254.19 3025.5v21.011h-21.013v3.623h21.013v21.011h3.6214v-21.011h21.013v-3.623h-21.013v-21.011z" stroke-linecap="square" stroke-linejoin="round"/>
   </g>
  </g>
  <g transform="matrix(1.1203 0 0 1.1202 -36.449 769.67)" stroke-width="12.461">
   <g fill="#fff">
    <circle cx="291.49" cy="185.91" r="1.0904"/>
    <g stroke="#000" stroke-width="12.461">
     <path d="m218.99 185.08 72.928-0.32412"/>
     <path d="m256 99.51a50.564 50.564 0 0 0-50.564 50.564 50.564 50.564 0 0 0 15.069 35.83 69.916 69.916 0 0 0-34.322 58.438h139.63a69.916 69.916 0 0 0-34.324-58.437 50.564 50.564 0 0 0 15.07-35.831 50.564 50.564 0 0 0-50.564-50.564z" stroke-linecap="round" stroke-linejoin="round"/>
     <path d="m218.78 244.53c-5.8343 75.521-98.697 120.12-99.831 141.75-0.91585 17.467 0.1779 23.727 1.5008 25.62 0.58967 0.84379 80.694 0.5318 123.69 0.54238 0.99552 0.044 2.3616 0.0172 3.6646-1e-3 2.2445 1e-3 6.243-8e-3 8.1968-4e-3 1.9538-4e-3 5.9523 6e-3 8.1968 4e-3 1.3029 0.0187 2.6678 0.0454 3.6632 1e-3 42.992-0.0106 123.1 0.30141 123.69-0.54238 1.3229-1.893 2.4166-8.1532 1.5008-25.62-1.1344-21.635-93.997-66.23-99.831-141.75l-37.217 0.11358z" stroke-linecap="square"/>
    </g>
   </g>
   <path d="m217.99 184.73 76.023 7.7e-4" fill="none" stroke="#000004" stroke-width="12.461"/>
  </g>
  <g transform="matrix(1.2038 0 0 1.2038 507.82 452.73)" stroke="#fff" stroke-width="16.614">
   <circle cx="291.49" cy="185.91" r="1.0904"/>
   <path d="m218.99 185.08 72.928-0.32412"/>
   <path d="m256 99.51a50.564 50.564 0 0 0-50.564 50.564 50.564 50.564 0 0 0 15.069 35.83 69.916 69.916 0 0 0-34.322 58.438h139.63a69.916 69.916 0 0 0-34.324-58.437 50.564 50.564 0 0 0 15.07-35.831 50.564 50.564 0 0 0-50.564-50.564z" stroke-linecap="round" stroke-linejoin="round"/>
   <path d="m218.78 244.53c-5.8343 75.521-98.697 120.12-99.831 141.75-0.91585 17.467 0.1779 23.727 1.5008 25.62 0.58967 0.84379 80.694 0.5318 123.69 0.54238 0.99552 0.044 2.3616 0.0172 3.6646-1e-3 2.2445 1e-3 6.243-8e-3 8.1968-4e-3 1.9538-4e-3 5.9523 6e-3 8.1968 4e-3 1.3029 0.0187 2.6678 0.0454 3.6632 1e-3 42.992-0.0106 123.1 0.30141 123.69-0.54238 1.3229-1.893 2.4166-8.1532 1.5008-25.62-1.1344-21.635-93.997-66.23-99.831-141.75l-37.217 0.11358z" stroke-linecap="square"/>
   <path d="m217.99 184.73 76.023 7.7e-4"/>
  </g>
 </g>
 <g transform="translate(39 -21.887)">
  <path d="m868.99 1152.7c33.336 18.842 42.07 30.968 55.118 52.689 22.544 37.527 37.72 80.458 45.019 123.51 8.3323 49.142 34.783 148.91 7.5676 149.34-94.195 1.4878-266.31 1.3125-276.23 1.4702-23.13 0.368-8.4625-19.082 20.989-66.408 21.556-34.639 52.408-63.771 69.16-100.98 4.7864-10.63-0.67863-26.272-15.578-14.678-34.555 26.89-22.79 8.339-92.726 81.402-3.8999 4.0742-36.072 17.21-35.22 5.2376 0.27003-3.7938 16.313-19.91 5.2584-26.76-8.3781-5.1916-13.362 19.727-13.362 19.727-11.379 15.524-37.328-8.3476-40.901-26.341-3.5353-17.802-5.6672-34.097 4.7138-51.637 126.74-214.15 72.918-125.6 86.807-195.02 3.4039-17.013 25.79 26.609 43.972 28.523 20.322 2.1386 22.112-32.596 38.667-34.762 11.718-1.5333 21.262 29.525 22.026 31.648 56.928 12.853 55.352 13.768 74.715 23.035z" stroke="#fff" stroke-linecap="round" stroke-linejoin="round" stroke-width="20"/>
  <g fill="#fff">
   <ellipse cx="621.33" cy="1315.8" rx="8.2519" ry="8.7464"/>
   <ellipse cx="701.37" cy="1212.2" rx="12.85" ry="11.969"/>
   <path d="m695.22 1197.2a18.549 22.609 83.736 0 0-12.767 23.434 23.617 28.896 83.369 0 1 17.235-17.8 23.617 28.896 83.369 0 1 21.92-0.8261 18.549 22.609 83.736 0 0-26.389-4.808z" stroke="#fff" stroke-linecap="round" stroke-linejoin="round" stroke-width="10"/>
  </g>
  <path d="m703.3 1133a18.095 30.594 87.745 0 0-17.3 22.828 23.044 39.094 87.586 0 1 23.356-17.34 23.044 39.094 87.586 0 1 29.704-0.8047 18.095 30.594 87.745 0 0-35.759-4.6836z" stroke="#fff" stroke-linecap="round" stroke-linejoin="round" stroke-width="10"/>
 </g>
 <g>
  <g stroke="#fff">
   <g transform="matrix(.92775 0 0 .9286 686.43 180.3)" stroke-linecap="square" stroke-linejoin="round" stroke-width="21.548">
    <rect x="46.08" y="2276.5" width="213.02" height="173.68"/>
    <path d="m2.916 2246.9h299.35l-17.916 25.634h-263.52z"/>
    <path d="m2.9157 2167.1v79.8h299.35v-79.8h-44.739v46.806h-70.039v-46.806h-70.057v46.806h-70.039v-46.806z"/>
    <path d="m4.5514 2482.8h296.08l-17.72-32.095h-260.64z"/>
    <rect x="5.0652" y="2485.2" width="295.05" height="45.161"/>
    <rect x="-25.137" y="2528.9" width="355.46" height="36.501"/>
   </g>
   <g transform="matrix(.89381 0 0 .89471 698.02 587.92)">
    <path d="m127.14 1466.4c-1.2264 3.4167-2.4696 6.6792-3.7197 9.8681l-19.26 14.142c1.7216 5.531 3.4556 10.708 5.1996 15.708-29.668 51.12-71.574 53.903-161.79 24.323l-34.243 24.783 1.1482 49.689 43.614-4.6222c96.308 1.9115 141.87 4.0114 173.91-45.21 32.045 49.222 77.604 47.121 173.91 45.21l43.616 4.6222 1.1482-49.689-34.246-24.783c-90.217 29.58-132.12 26.797-161.79-24.321 1.7442-5.0007 3.4757-10.178 5.1975-15.71l-19.26-14.142c-1.2501-3.1889-2.4912-6.4514-3.7176-9.8681l-4.8616 3.5686z" stroke-linecap="square" stroke-linejoin="round" stroke-width="22.365"/>
    <g transform="matrix(1.1822 0 0 1.1758 -24.055 -272.52)" stroke-width="18.969">
     <path d="m47.319 1381.2s83.718 83.481 83.845 84.262c0.1267 0.7817 83.845-84.262 83.845-84.262l-83.845-139.33z"/>
     <g stroke-linecap="square" stroke-linejoin="round">
      <ellipse cx="132" cy="1231.3" rx="28.604" ry="28.15"/>
      <path d="m131.93 1417.5c-49.175 0.084-90.927 33.565-98.297 78.829h4.5049c16.748-21.767 53.422-25.574 93.858-25.621 40.508 0 77.28 3.8158 94.059 25.621h4.304c-7.378-45.311-49.203-78.808-98.428-78.829z"/>
      <ellipse cx="132" cy="1496.4" rx="98.326" ry="25.227"/>
      <path d="m129.34 1339.2v21.011h-21.013v3.623h21.013v21.011h3.6214v-21.011h21.013v-3.623h-21.013v-21.011z"/>
     </g>
    </g>
   </g>
   <rect x="1197.1" y="2.1919" width="561.5" height="3844.9" fill="#999" stroke-linecap="square" stroke-linejoin="round" stroke-width="13.062"/>
  </g>
  <g transform="matrix(1.1202 0 0 1.121 1210.9 302.77)" stroke="#000" stroke-width="12.461">
   <circle cx="291.49" cy="185.91" r="1.0904"/>
   <path d="m218.99 185.08 72.928-0.32412"/>
   <path d="m256 99.51a50.564 50.564 0 0 0-50.564 50.564 50.564 50.564 0 0 0 15.069 35.83 69.916 69.916 0 0 0-34.322 58.438h139.63a69.916 69.916 0 0 0-34.324-58.437 50.564 50.564 0 0 0 15.07-35.831 50.564 50.564 0 0 0-50.564-50.564z" stroke-linecap="round" stroke-linejoin="round"/>
   <path d="m218.78 244.53c-5.8343 75.521-98.697 120.12-99.831 141.75-0.91585 17.467 0.1779 23.727 1.5008 25.62 0.58967 0.84379 80.694 0.5318 123.69 0.54238 0.99552 0.044 2.3616 0.0172 3.6646-1e-3 2.2445 1e-3 6.243-8e-3 8.1968-4e-3 1.9538-4e-3 5.9523 6e-3 8.1968 4e-3 1.3029 0.0187 2.6678 0.0454 3.6632 1e-3 42.992-0.0106 123.1 0.30141 123.69-0.54238 1.3229-1.893 2.4166-8.1532 1.5008-25.62-1.1344-21.635-93.997-66.23-99.831-141.75l-37.217 0.11358z" stroke-linecap="square"/>
   <path d="m217.99 184.73 76.023 7.7e-4"/>
  </g>
 </g>
 <g transform="translate(-15.54 -145.66)">
  <path d="m1553.5 1131c33.336 18.842 42.07 30.968 55.118 52.689 22.544 37.527 37.72 80.458 45.019 123.51 8.3323 49.142 34.783 148.91 7.5677 149.34-94.195 1.4878-266.31 1.3125-276.23 1.4702-23.13 0.368-8.4625-19.082 20.989-66.408 21.556-34.639 52.408-63.771 69.16-100.98 4.7863-10.63-0.6786-26.272-15.578-14.678-34.555 26.89-22.79 8.3391-92.726 81.402-3.8999 4.0742-36.072 17.21-35.22 5.2376 0.27-3.7938 16.313-19.91 5.2583-26.76-8.378-5.1916-13.362 19.727-13.362 19.727-11.379 15.524-37.328-8.3476-40.901-26.341-3.5354-17.802-5.6672-34.097 4.7138-51.637 126.74-214.15 72.918-125.6 86.807-195.02 3.4039-17.013 25.79 26.609 43.972 28.523 20.322 2.1386 22.112-32.596 38.667-34.762 11.718-1.5333 21.262 29.525 22.026 31.648 56.928 12.853 55.352 13.768 74.715 23.035z" stroke="#000" stroke-linecap="round" stroke-linejoin="round" stroke-width="15"/>
  <g fill="#fff">
   <ellipse cx="1305.8" cy="1294.1" rx="8.2519" ry="8.7464"/>
   <ellipse cx="1385.8" cy="1190.5" rx="12.85" ry="11.969"/>
   <path d="m1379.7 1175.5a18.549 22.609 83.736 0 0-12.767 23.434 23.617 28.896 83.369 0 1 17.235-17.8 23.617 28.896 83.369 0 1 21.92-0.826 18.549 22.609 83.736 0 0-26.389-4.8081z" stroke="#fff" stroke-linecap="round" stroke-linejoin="round" stroke-width="5"/>
   <path d="m1387.4 1110.3a23.218 30.617 85.563 0 0-17.3 29.314 29.565 39.128 85.278 0 1 23.356-22.266 29.565 39.128 85.278 0 1 29.704-1.0334 23.218 30.617 85.563 0 0-35.759-6.0143z" stroke="#fff" stroke-linecap="round" stroke-linejoin="round" stroke-width="5"/>
  </g>
 </g>
 <g transform="translate(16.801 -32.905)">
  <g>
   <g stroke="#000" stroke-width="15">
    <path d="m1458.2 1858c-1.0962 3.0569-2.2074 5.9759-3.3248 8.8291l-17.214 12.653c1.5388 4.9486 3.0887 9.5803 4.6475 14.054-26.517 45.737-63.973 48.228-144.61 21.762l-30.607 22.173 1.0263 44.457 38.983-4.1355c86.081 1.7102 126.8 3.589 155.44-40.449 28.642 44.039 69.363 42.16 155.44 40.449l38.984 4.1355 1.0263-44.457-30.609-22.173c-80.637 26.466-118.09 23.975-144.61-21.76 1.559-4.4741 3.1066-9.1068 4.6455-14.056l-17.214-12.653c-1.1173-2.8532-2.2266-5.7722-3.3228-8.8291l-4.3454 3.1929z" stroke-linecap="square" stroke-linejoin="round"/>
    <path d="m1373.1 1755.2s88.464 87.822 88.598 88.644c0.1338 0.8223 88.598-88.644 88.598-88.644l-88.598-146.57z"/>
    <ellipse cx="1462.5" cy="1597.5" rx="30.226" ry="29.614" stroke-linecap="square" stroke-linejoin="round"/>
    <path d="m1462.5 1793.4c-51.963 0.088-96.081 35.309-103.87 82.928h0.059a103.9 26.539 0 0 0-0.021 0.1055 103.9 26.539 0 0 0 103.9 26.539 103.9 26.539 0 0 0 103.9-26.539 103.9 26.539 0 0 0-0.016-0.1055h0.053c-0.079-0.4799-0.1661-0.9561-0.252-1.4336a103.9 26.539 0 0 0-0.066-0.3789c-8.6074-46.744-52.335-81.093-103.69-81.115zm0.07 55.975c24.089 0 46.927 1.2725 65.453 6.4727a103.9 26.539 0 0 0-65.455-5.9532 103.9 26.539 0 0 0-64.094 5.6602c18.264-4.9174 40.573-6.1519 64.096-6.1797z" stroke-linecap="square" stroke-linejoin="round"/>
   </g>
   <path d="m1459.7 1711.1v22.104h-22.204v3.8114h22.204v22.104h3.8267v-22.104h22.204v-3.8114h-22.204v-22.104z" stroke="#fff" stroke-linecap="square" stroke-linejoin="round" stroke-width="20"/>
  </g>
  <g transform="matrix(.84645 0 0 1 224.57 0)" fill="#fff">
   <path transform="matrix(1 0 0 .80426 -20.973 308.36)" d="m1470.2 1905.2c-34.658 0.8265-72.665 7.8987-109.91 26.723l9.0215 17.85c109.21-55.201 228.69 0.1309 228.69 0.1309l8.4804-18.111s-60.038-28.41-136.29-26.592z" clip-path="url(#clipPath1217)" color="#000000" color-rendering="auto" dominant-baseline="auto" image-rendering="auto" shape-rendering="auto" solid-color="#000000" style="font-feature-settings:normal;font-variant-alternates:normal;font-variant-caps:normal;font-variant-ligatures:normal;font-variant-numeric:normal;font-variant-position:normal;isolation:auto;mix-blend-mode:normal;shape-padding:0;text-decoration-color:#000000;text-decoration-line:none;text-decoration-style:solid;text-indent:0;text-orientation:mixed;text-transform:none;white-space:normal"/>
   <path d="m1395.9 1848.6 66.644-4.2213 64.569 2.9839 0.8839 5.4888-129.55-0.293z"/>
  </g>
 </g>
 <g transform="translate(8.4853 36.769)">
  <g transform="matrix(.92775 0 0 .9286 1316.5 157.42)" stroke="#000" stroke-linecap="square" stroke-linejoin="round" stroke-width="16.161">
   <rect x="46.08" y="2276.5" width="213.02" height="173.68"/>
   <path d="m2.916 2246.9h299.35l-17.916 25.634h-263.52z"/>
   <path d="m2.9157 2167.1v79.8h299.35v-79.8h-44.739v46.806h-70.039v-46.806h-70.057v46.806h-70.039v-46.806z"/>
   <path d="m4.5514 2482.8h296.08l-17.72-32.095h-260.64z"/>
   <rect x="5.0652" y="2485.2" width="295.05" height="45.161"/>
   <rect x="-25.137" y="2528.9" width="355.46" height="36.501"/>
  </g>
  <g fill="#fff">
   <path d="m1330.1 2243.2h257l-9 15h-239.25z"/>
   <path d="m1332.5 2469.4h252.09l-8.8282-15h-234.68z"/>
   <rect x="1333.1" y="2498" width="250.17" height="15"/>
   <rect x="1370.6" y="2277.2" width="175" height="15"/>
   <rect x="1370.5" y="2426.7" width="175.34" height="15"/>
  </g>
 </g>
 <g transform="translate(20.884 -6.7517)">
  <path d="m1474 2745.1c-9.81-7e-4 -17.763 7.9585-17.764 17.777 0.011 8.7116 6.3265 16.132 14.918 17.527l-26.123 172.69 61.658 1.5586-29.938-174.22c8.6374-1.3561 15.004-8.8018 15.01-17.553-6e-4 -9.818-7.9525-17.777-17.762-17.777zm32.689 209.55 7.0782 0.4864c-12.312-0.479-24.67-0.7345-37.055-0.7383-60.397 0.075-117.73 5.7057-173.86 16.84l20.93 53.49c6.1198-1.1503 12.066-2.178 17.912-3.1192-6.0181 0.9727-11.99 2.0127-17.912 3.1192l6.9864 48.623 0.3379-0.053c-0.103 0.03-0.188 0.054-0.2911 0.084-3.0585 6.2686-22.12 53.416-21.131 53.613 4.3239 12.846 77.814 22.942 167.04 22.949 88.624-0.016 161.79-9.9888 166.85-22.742 2.7688-1.9122-17.841-46.269-20.942-53.674l7.0332-48.947c-9.5573-1.7845-19.245-3.3956-29.043-4.8301 9.3806 1.3356 19 2.9282 29.043 4.8301l19.187-63.997 10.586-139.12c0.8187 0.1214 1.6449 0.1854 2.4726 0.1915 9.8093-4e-4 17.761-7.9593 17.762-17.777 5e-4 -9.8189-7.9518-17.779-17.762-17.779-9.81 4e-4 -17.762 7.9605-17.762 17.779 0.01 6.8194 3.91 13.034 10.047 15.996l-77.773 139.57 4.8964 0.75c-3.7524-0.4188-7.514-0.8157-11.285-1.1894l6.3887 0.4394-15.852-150.92c9.5545-0.3339 17.131-8.1771 17.143-17.746 5e-4 -9.8188-7.9517-17.779-17.762-17.779-9.8107-7e-4 -17.764 7.9597-17.764 17.779 0.01 8.1721 5.5826 15.286 13.51 17.242zm-61.658-1.5586-49.08-146.84c7.501-2.259 12.638-9.1695 12.644-17.01-6e-4 -9.8188-7.9537-17.778-17.764-17.777-9.8092 4e-4 -17.761 7.9593-17.762 17.777-5e-4 9.8188 7.9517 17.779 17.762 17.779 0.1049 0 0.2097-0.01 0.3145-0.012l-15.848 150.88zm-69.732 4.7969-77.975-139.93c5.7308-3.1031 9.3041-9.0976 9.3106-15.619-6e-4 -9.8181-7.9525-17.777-17.762-17.777-9.8092 4e-4 -17.761 7.9593-17.762 17.777-5e-4 9.8188 7.9517 17.779 17.762 17.779 1.1432-0.01 2.2833-0.1211 3.4043-0.3457l6.5371 138.86z" stroke="#000" stroke-linecap="square" stroke-width="15"/>
  <g fill="#fff" shape-rendering="auto">
   <path d="m1465.4 2947.1c-46.36 0.012-98.953 4.2773-153.87 16.657l3.1904 14.681c171.75-38.719 320.51 3.6622 320.51 3.6622l3.9849-14.478s-71.822-20.55-173.81-20.522z" color="#000000" color-rendering="auto" dominant-baseline="auto" image-rendering="auto" solid-color="#000000" style="font-feature-settings:normal;font-variant-alternates:normal;font-variant-caps:normal;font-variant-ligatures:normal;font-variant-numeric:normal;font-variant-position:normal;isolation:auto;mix-blend-mode:normal;shape-padding:0;text-decoration-color:#000000;text-decoration-line:none;text-decoration-style:solid;text-indent:0;text-orientation:mixed;text-transform:none;white-space:normal"/>
   <path d="m1466.7 3012.3c-40.527 0.013-86.502 4.4673-134.51 17.397l2.789 15.333c150.14-40.439 280.18 3.8248 280.18 3.8248l3.4834-15.121s-62.785-21.463-151.94-21.433z" color="#000000" color-rendering="auto" dominant-baseline="auto" image-rendering="auto" solid-color="#000000" style="font-feature-settings:normal;font-variant-alternates:normal;font-variant-caps:normal;font-variant-ligatures:normal;font-variant-numeric:normal;font-variant-position:normal;isolation:auto;mix-blend-mode:normal;shape-padding:0;text-decoration-color:#000000;text-decoration-line:none;text-decoration-style:solid;text-indent:0;text-orientation:mixed;text-transform:none;white-space:normal"/>
   <path d="m1467 3061.3c-39.128 0.013-83.516 4.2773-129.86 16.657l2.6926 14.681c144.96-38.719 270.51 3.6622 270.51 3.6622l3.3631-14.478s-60.618-20.55-146.7-20.522z" color="#000000" color-rendering="auto" dominant-baseline="auto" image-rendering="auto" solid-color="#000000" style="font-feature-settings:normal;font-variant-alternates:normal;font-variant-caps:normal;font-variant-ligatures:normal;font-variant-numeric:normal;font-variant-position:normal;isolation:auto;mix-blend-mode:normal;shape-padding:0;text-decoration-color:#000000;text-decoration-line:none;text-decoration-style:solid;text-indent:0;text-orientation:mixed;text-transform:none;white-space:normal"/>
  </g>
 </g>
 <g transform="translate(-528,12)">
  <g>
   <g stroke="#000" stroke-linejoin="round">
    <ellipse cx="2004" cy="3398.1" rx="35.3" ry="76.074" stroke-linecap="round" stroke-width="15"/>
    <path d="m2013.6 3573.9c37.211 106.01 91.214 78.683 114.75 20.832 32.052-78.785 103.36-115.83 76.12-167.96-27.236-52.135-92.042-61.461-144.75-20.832-52.707 40.63-66.058 111.17-46.12 167.96z" stroke-linecap="square" stroke-width="18.876"/>
    <path d="m1995.7 3573.9c-37.211 106.01-91.214 78.683-114.75 20.832-32.052-78.785-103.36-115.83-76.12-167.96 27.236-52.135 92.042-61.461 144.75-20.832 52.707 40.63 66.058 111.17 46.12 167.96z" stroke-linecap="square" stroke-width="18.876"/>
   </g>
   <g>
    <g transform="matrix(.81717 0 0 .59175 1800.2 1617.5)" stroke="#000" stroke-width="21.571">
     <path d="m439.07 3252.6c-60.535-11.928-125.03-18.063-190.12-18.083-65.101 0.081-129.59 6.2783-190.09 18.268l25.255 57.47c57.997-10.891 102.87-12.658 164.84-12.731 61.986 0.1466 106.9 1.6063 164.86 12.573z" stroke-linecap="square"/>
     <path d="m430.33 3420.3c-57.751 11.928-119.28 18.063-181.38 18.083-62.107-0.081-123.63-6.2782-181.35-18.268l24.094-57.47c164.32-47.792 165.87-48.012 314.54 0.158z" stroke-linecap="round" stroke-linejoin="round"/>
     <path d="m413.82 3310.1a449.52 220.83 0 0 0-164.86-15.442 449.52 220.83 0 0 0-164.84 15.6l7.5297 52.361a449.52 220.83 0 0 1 157.31-14.157 449.52 220.83 0 0 1 157.28 14.35z" stroke-linecap="square"/>
     <ellipse cx="248.97" cy="3419.1" rx="180.36" ry="25.973" stroke-linecap="square"/>
    </g>
    <g stroke-linecap="square" stroke-linejoin="round" stroke-width="15">
     <path d="m2002.5 3272.5v17.403h-17.397v3.0008h17.397v17.403h2.9982v-17.403h17.397v-3.0008h-17.397v-17.403z" stroke="#000"/>
     <path d="m2124.8 3393.1c-18.897 0.4412-38.937 7.7965-57.266 22.494-32.546 26.098-47.556 66.053-46.991 105.28 5.0311 0.1474 9.9898 0.3379 14.818 0.5958 5.2357 0.2795 10.347 0.6196 15.327 1.0097 4.9798 0.3902 9.8288 0.8319 14.534 1.3125 4.7057 0.4807 9.2685 1.0017 13.682 1.5528 4.4134 0.551 8.6777 1.131 12.781 1.7324 4.1031 0.6013 8.045 1.2238 11.82 1.8554s7.3816 1.2723 10.809 1.9141c3.4278 0.6418 6.6762 1.2842 9.7391 1.916 3.0628 0.6318 5.9383 1.2537 8.6181 1.8555 5.3596 1.2036 9.9355 2.3279 13.654 3.291 1.7006 0.4405-1.3352-0.3657 0 0 27.948-41.979 62.837-68.477 45.117-103.76-13.843-27.564-39.022-41.69-66.642-41.045z" stroke="#fff"/>
     <path d="m1885.7 3393.1c18.897 0.4412 38.937 7.7965 57.266 22.494 32.546 26.098 47.556 66.053 46.991 105.28-5.0311 0.1474-9.9898 0.3379-14.818 0.5958-5.2357 0.2795-10.347 0.6196-15.327 1.0097-4.9798 0.3902-9.8288 0.8319-14.534 1.3125-4.7057 0.4807-9.2685 1.0017-13.682 1.5528-4.4134 0.551-8.6777 1.131-12.781 1.7324-4.1031 0.6013-8.045 1.2238-11.82 1.8554s-7.3816 1.2723-10.809 1.9141c-3.4278 0.6418-6.6762 1.2842-9.7391 1.916-3.0628 0.6318-5.9383 1.2537-8.6181 1.8555-5.3596 1.2036-9.9355 2.3279-13.654 3.291-1.7006 0.4405 1.3352-0.3657 0 0-27.948-41.979-62.837-68.477-45.117-103.76 13.843-27.564 39.022-41.69 66.642-41.045z" stroke="#fff"/>
    </g>
   </g>
  </g>
  <path d="m1995.5 3555.7c-37.021 0.013-79.02 4.2773-122.87 16.657l2.5477 14.681c137.15-38.719 255.94 3.6622 255.94 3.6622l3.1821-14.478s-57.354-20.55-138.8-20.522z" color="#000000" color-rendering="auto" dominant-baseline="auto" fill="#fff" image-rendering="auto" shape-rendering="auto" solid-color="#000000" style="font-feature-settings:normal;font-variant-alternates:normal;font-variant-caps:normal;font-variant-ligatures:normal;font-variant-numeric:normal;font-variant-position:normal;isolation:auto;mix-blend-mode:normal;shape-padding:0;text-decoration-color:#000000;text-decoration-line:none;text-decoration-style:solid;text-indent:0;text-orientation:mixed;text-transform:none;white-space:normal"/>
  <path d="m1996.3 3589.7c-33.343 0.013-71.168 4.2773-110.66 16.657l2.2946 14.681c123.53-38.719 230.51 3.6621 230.51 3.6621l2.8659-14.478s-51.656-20.55-125.01-20.522z" color="#000000" color-rendering="auto" dominant-baseline="auto" fill="#fff" image-rendering="auto" shape-rendering="auto" solid-color="#000000" style="font-feature-settings:normal;font-variant-alternates:normal;font-variant-caps:normal;font-variant-ligatures:normal;font-variant-numeric:normal;font-variant-position:normal;isolation:auto;mix-blend-mode:normal;shape-padding:0;text-decoration-color:#000000;text-decoration-line:none;text-decoration-style:solid;text-indent:0;text-orientation:mixed;text-transform:none;white-space:normal"/>
  <path d="m2023.9 3389.6c-22.871 58.625-8.9129 51.616-19.908 51.615-10.995 1e-4 3.5813 8.1251-19.908-51.615-10.132-25.769 8.913-51.615 19.908-51.615 10.995-1e-4 29.975 25.81 19.908 51.615z" stroke="#fff" stroke-linecap="round" stroke-linejoin="round" stroke-width="14.382"/>
 </g>
</svg>
