<?xml version="1.0" encoding="UTF-8" standalone="no"?>
<!-- Created with Inkscape (http://www.inkscape.org/) -->

<svg
   width="512"
   height="512"
   viewBox="0 0 512 512"
   version="1.1"
   id="svg5"
   sodipodi:docname="begebies-pieceset.svg"
   inkscape:version="1.1.1 (3bf5ae0d25, 2021-09-20)"
   xmlns:inkscape="http://www.inkscape.org/namespaces/inkscape"
   xmlns:sodipodi="http://sodipodi.sourceforge.net/DTD/sodipodi-0.dtd"
   xmlns="http://www.w3.org/2000/svg"
   xmlns:svg="http://www.w3.org/2000/svg">
  <sodipodi:namedview
     id="namedview7"
     pagecolor="#ffffff"
     bordercolor="#666666"
     borderopacity="1.0"
     inkscape:pageshadow="2"
     inkscape:pageopacity="0.0"
     inkscape:pagecheckerboard="0"
     inkscape:document-units="px"
     showgrid="false"
     inkscape:zoom="0.19824219"
     inkscape:cx="1324.1379"
     inkscape:cy="865.10345"
     inkscape:window-width="1920"
     inkscape:window-height="1001"
     inkscape:window-x="-9"
     inkscape:window-y="-9"
     inkscape:window-maximized="1"
     inkscape:current-layer="layer1" />
  <defs
     id="defs2" />
  <g
     inkscape:label="Layer 1"
     inkscape:groupmode="layer"
     id="layer1">
    <rect
       style="fill:#999999;fill-opacity:1;stroke:#ffffff;stroke-width:13.0621;stroke-linecap:square;stroke-linejoin:round;stroke-miterlimit:4;stroke-dasharray:none;stroke-opacity:1"
       id="rect17437"
       width="561.50012"
       height="3844.9031"
       x="551.56519"
       y="2.1919272" />
    <g
       id="g25561"
       transform="translate(6.3054179,-64.84732)">
      <path
         id="path2485-2"
         style="fill:#ffffff;fill-opacity:1;stroke:#000000;stroke-width:9.43042;stroke-linecap:round;stroke-linejoin:round;stroke-opacity:1"
         inkscape:transform-center-x="-2.0205424"
         inkscape:transform-center-y="-6.9278815"
         d="m 301.20247,792.46146 c 30.48096,17.21057 38.4663,28.28632 50.39695,48.12584 20.61272,34.27682 34.4891,73.48925 41.16293,112.80882 7.61864,44.88605 31.8037,136.01588 6.91942,136.40858 -86.12714,1.3589 -243.49766,1.1988 -252.56708,1.3429 -21.14842,0.3361 -7.73764,-17.4289 19.19156,-60.6562 19.70989,-31.63878 47.91902,-58.24775 63.23651,-92.23101 4.37638,-9.70937 -0.6205,-23.99627 -14.24359,-13.40628 -31.59562,24.56077 -20.838,7.61676 -84.78384,74.35149 -3.56587,3.7213 -32.982416,15.7198 -32.203218,4.7839 0.246898,-3.4652 14.915718,-18.18556 4.807998,-24.44255 -7.660455,-4.74199 -12.217874,18.0187 -12.217874,18.0187 C 80.497854,1011.7446 56.771648,989.94097 53.504385,973.5062 50.271864,957.24618 48.322587,942.36262 57.814445,926.341 173.6987,730.73645 124.48649,811.62315 137.18634,748.2138 c 3.11232,-15.53955 23.58097,24.30473 40.20578,26.05244 18.58172,1.95341 20.21785,-29.77289 35.35502,-31.7515 10.71475,-1.40054 19.44079,26.96748 20.13975,28.90654 52.05192,11.74012 50.61069,12.57556 68.31558,21.04018 z"
         sodipodi:nodetypes="csssssssssssssssscc" />
      <ellipse
         style="fill:#000000;fill-opacity:1;stroke:none;stroke-width:9.9871;stroke-linecap:round;stroke-linejoin:round;stroke-miterlimit:4;stroke-dasharray:none;stroke-opacity:1"
         id="path11488"
         cx="74.753464"
         cy="941.42175"
         rx="7.545053"
         ry="7.9888353" />
      <ellipse
         style="fill:#000000;fill-opacity:1;stroke:none;stroke-width:14.5791;stroke-linecap:round;stroke-linejoin:round;stroke-miterlimit:4;stroke-dasharray:none;stroke-opacity:1"
         id="path11488-5"
         cx="147.9377"
         cy="846.79596"
         rx="11.749703"
         ry="10.932091" />
      <path
         id="path11804"
         style="fill:#000000;fill-opacity:1;stroke:none;stroke-width:6.17546;stroke-linecap:round;stroke-linejoin:round;stroke-miterlimit:4;stroke-dasharray:none;stroke-opacity:1"
         d="m 142.3208,833.10597 a 16.942727,20.672587 83.768693 0 0 -11.67323,21.40476 21.572019,26.420908 83.403794 0 1 15.75894,-16.25863 21.572019,26.420908 83.403794 0 1 20.0426,-0.75453 16.942727,20.672587 83.768693 0 0 -24.12831,-4.3916 z" />
      <path
         id="path11804-7"
         style="fill:#000000;fill-opacity:1;stroke:none;stroke-width:9.43042;stroke-linecap:round;stroke-linejoin:round;stroke-miterlimit:4;stroke-dasharray:none;stroke-opacity:1"
         d="m 154.74138,771.54356 a 16.528059,27.973389 87.749705 0 0 -15.81848,20.85093 21.048075,35.744972 87.590931 0 1 21.35506,-15.83795 21.048075,35.744972 87.590931 0 1 27.15987,-0.73501 16.528059,27.973389 87.749705 0 0 -32.69645,-4.27797 z" />
    </g>
    <g
       id="g18069"
       transform="matrix(0.726966,0,0,0.726966,69.896705,69.690331)"
       style="fill:#ffffff;fill-opacity:1">
      <circle
         id="path13991"
         style="fill:#ffffff;fill-opacity:1;stroke:none"
         cx="304.82422"
         cy="159.86328"
         r="1.5" />
      <path
         style="fill:#ffffff;fill-opacity:1;stroke:#000000;stroke-width:10;stroke-linecap:butt;stroke-linejoin:miter;stroke-miterlimit:4;stroke-dasharray:none;stroke-opacity:1"
         d="m 205.0958,158.72631 100.3186,-0.44586"
         id="path13993" />
      <g
         id="g16165"
         style="fill:#ffffff;fill-opacity:1">
        <path
           id="path13698"
           style="fill:#ffffff;fill-opacity:1;stroke:#000000;stroke-width:10;stroke-linecap:round;stroke-linejoin:round;stroke-miterlimit:4;stroke-dasharray:none;stroke-opacity:1"
           d="m 256,41.019531 a 69.55423,69.55423 0 0 0 -69.55469,69.554689 69.55423,69.55423 0 0 0 20.72852,49.28711 96.175583,96.175583 0 0 0 -47.21289,80.38672 H 352.03906 A 96.175583,96.175583 0 0 0 304.82422,159.86328 69.55423,69.55423 0 0 0 325.55469,110.57422 69.55423,69.55423 0 0 0 256,41.019531 Z" />
        <path
           id="path14108"
           style="fill:#ffffff;fill-opacity:1;stroke:#000000;stroke-width:10;stroke-linecap:square;stroke-linejoin:miter;stroke-miterlimit:4;stroke-dasharray:none;stroke-opacity:1"
           d="M 204.80469,240.50391 C 196.7792,344.38939 69.039029,405.73296 67.478517,435.49414 c -1.25983,24.02674 0.244713,32.63819 2.064453,35.24219 0.811134,1.1607 111.00092,0.73153 170.14062,0.74609 1.36943,0.0605 3.24852,0.0237 5.04102,-0.002 3.08747,0.002 8.58781,-0.0116 11.27539,-0.006 2.68758,-0.006 8.18792,0.008 11.27539,0.006 1.7922,0.0257 3.66982,0.0625 5.03906,0.002 59.13917,-0.0146 169.33144,0.41462 170.14258,-0.74609 1.81974,-2.604 3.32428,-11.21545 2.06445,-35.24219 C 442.96096,405.73296 315.2208,344.38939 307.19531,240.50391 L 256,240.66016 Z" />
      </g>
    </g>
    <g
       id="g18074"
       transform="matrix(0.73346681,0,0,0.73346681,219.90632,53.308268)">
      <g
         id="g16251"
         transform="translate(573.7931,25.221675)"
         style="fill:#000000;fill-opacity:1;stroke:#ffffff;stroke-opacity:1">
        <path
           id="path16247"
           style="fill:#000000;fill-opacity:1;stroke:#ffffff;stroke-width:10;stroke-linecap:round;stroke-linejoin:round;stroke-miterlimit:4;stroke-dasharray:none;stroke-opacity:1"
           d="m 256,41.019531 a 69.55423,69.55423 0 0 0 -69.55469,69.554689 69.55423,69.55423 0 0 0 20.72852,49.28711 96.175583,96.175583 0 0 0 -47.21289,80.38672 H 352.03906 A 96.175583,96.175583 0 0 0 304.82422,159.86328 69.55423,69.55423 0 0 0 325.55469,110.57422 69.55423,69.55423 0 0 0 256,41.019531 Z" />
        <path
           id="path16249"
           style="fill:#000000;fill-opacity:1;stroke:#ffffff;stroke-width:10;stroke-linecap:square;stroke-linejoin:miter;stroke-miterlimit:4;stroke-dasharray:none;stroke-opacity:1"
           d="M 204.80469,240.50391 C 196.7792,344.38939 69.039029,405.73296 67.478517,435.49414 c -1.25983,24.02674 0.244713,32.63819 2.064453,35.24219 0.811134,1.1607 111.00092,0.73153 170.14062,0.74609 1.36943,0.0605 3.24852,0.0237 5.04102,-0.002 3.08747,0.002 8.58781,-0.0116 11.27539,-0.006 2.68758,-0.006 8.18792,0.008 11.27539,0.006 1.7922,0.0257 3.66982,0.0625 5.03906,0.002 59.13917,-0.0146 169.33144,0.41462 170.14258,-0.74609 1.81974,-2.604 3.32428,-11.21545 2.06445,-35.24219 C 442.96096,405.73296 315.2208,344.38939 307.19531,240.50391 L 256,240.66016 Z" />
      </g>
    </g>
    <g
       id="g18081"
       transform="matrix(0.95243452,0,0,0.95243452,25.626752,77.250783)">
      <path
         id="path17563"
         style="fill:#000000;fill-opacity:1;stroke:#ffffff;stroke-width:10;stroke-linecap:round;stroke-linejoin:round;stroke-opacity:1"
         inkscape:transform-center-x="-2.0205424"
         inkscape:transform-center-y="-6.9278815"
         d="m 900.46794,656.3856 c 32.32196,18.25006 40.7896,29.99476 53.44085,51.03256 21.85769,36.34708 36.57218,77.92788 43.6491,119.62228 8.07881,47.5971 33.72461,144.231 7.33731,144.6474 -91.32905,1.441 -258.20449,1.2712 -267.82169,1.424 -22.42575,0.3564 -8.20498,-18.4815 20.3507,-64.3197 20.90034,-33.5497 50.81325,-61.7658 67.05589,-97.8016 4.64071,-10.2958 -0.65797,-25.4456 -15.10387,-14.216 -33.50395,26.0442 -22.09659,8.0768 -89.90465,78.8422 -3.78124,3.9461 -34.9745,16.6692 -34.14824,5.0728 0.26181,-3.6745 15.8166,-19.2839 5.09839,-25.9188 -8.12313,-5.0284 -12.95581,19.107 -12.95581,19.107 -11.03279,15.0353 -36.19202,-8.0852 -39.65662,-25.5126 -3.42776,-17.2421 -5.49477,-33.0246 4.57038,-50.0139 122.88347,-207.41874 70.69893,-121.64662 84.16583,-188.88579 3.3003,-16.47811 25.00522,25.7727 42.63414,27.62596 19.70403,2.0714 21.43898,-31.57112 37.49041,-33.66923 11.3619,-1.48513 20.61498,28.59627 21.35615,30.65244 55.19578,12.44921 53.6675,13.33511 72.44173,22.31098 z"
         sodipodi:nodetypes="csssssssssssssssscc" />
      <ellipse
         style="fill:#ffffff;fill-opacity:1;stroke:none;stroke-width:10.5903;stroke-linecap:round;stroke-linejoin:round;stroke-miterlimit:4;stroke-dasharray:none;stroke-opacity:1"
         id="ellipse17565"
         cx="660.3418"
         cy="814.34283"
         rx="8.000762"
         ry="8.4713478" />
      <ellipse
         style="fill:#ffffff;fill-opacity:1;stroke:none;stroke-width:15.4597;stroke-linecap:round;stroke-linejoin:round;stroke-miterlimit:4;stroke-dasharray:none;stroke-opacity:1"
         id="ellipse17567"
         cx="737.94623"
         cy="714.00183"
         rx="12.459366"
         ry="11.592371" />
      <path
         id="path17569"
         style="fill:#ffffff;fill-opacity:1;stroke:none;stroke-width:6.54845;stroke-linecap:round;stroke-linejoin:round;stroke-miterlimit:4;stroke-dasharray:none;stroke-opacity:1"
         d="m 731.99008,699.48497 a 17.96604,21.921177 83.768693 0 0 -12.37827,22.69757 22.874934,28.016688 83.403794 0 1 16.71075,-17.24062 22.874934,28.016688 83.403794 0 1 21.25314,-0.80011 17.96604,21.921177 83.768693 0 0 -25.58562,-4.65684 z" />
      <path
         id="path17571"
         style="fill:#ffffff;fill-opacity:1;stroke:none;stroke-width:8.19937;stroke-linecap:round;stroke-linejoin:round;stroke-miterlimit:4;stroke-dasharray:none;stroke-opacity:1"
         d="m 741.48707,637.71266 a 19.500016,31.663878 87.54005 0 0 -17.90414,24.60192 24.832535,40.461167 87.367858 0 1 24.17071,-18.68713 24.832535,40.461167 87.367858 0 1 30.74089,-0.86723 19.500016,31.663878 87.54005 0 0 -37.00746,-5.04756 z" />
    </g>
    <g
       id="g25531"
       transform="matrix(0.89937907,0,0,0.89937907,-0.40139401,149.43113)"
       inkscape:export-filename="C:\Users\scott\OneDrive\Desktop\bishop.png"
       inkscape:export-xdpi="96"
       inkscape:export-ydpi="96"
       style="stroke-width:11.1188;stroke-miterlimit:4;stroke-dasharray:none">
      <path
         id="rect20200"
         style="fill:#ffffff;fill-opacity:1;stroke:#000000;stroke-width:11.1188;stroke-linecap:square;stroke-linejoin:round;stroke-miterlimit:4;stroke-dasharray:none;stroke-opacity:1"
         d="m 280.62621,1458.334 c -1.36365,3.799 -2.74585,7.4264 -4.13586,10.9721 l -21.41445,15.7242 c 1.91422,6.1498 3.84217,11.9058 5.78133,17.4653 -32.98705,56.8386 -79.58118,59.9338 -179.893151,27.0441 l -38.074561,27.5552 1.2767,55.2481 48.49354,-5.1393 c 107.082932,2.1254 157.739182,4.4602 193.369662,-50.2675 35.63052,54.7287 86.28606,52.3929 193.36965,50.2675 l 48.49587,5.1393 1.2767,-55.2481 -38.07689,-27.5552 c -100.31056,32.8893 -146.90383,29.7946 -179.89079,-27.0417 1.93939,-5.5602 3.86452,-11.3172 5.77898,-17.4677 l -21.41446,-15.7242 c -1.38999,-3.5456 -2.7699,-7.1731 -4.13351,-10.9721 l -5.40555,3.9678 z" />
      <path
         sodipodi:type="star"
         style="fill:#ffffff;fill-opacity:1;stroke:#000000;stroke-width:5.5659;stroke-linecap:square;stroke-linejoin:round;stroke-miterlimit:4;stroke-dasharray:none;stroke-opacity:1"
         id="path18406"
         inkscape:flatsided="false"
         sodipodi:sides="2"
         sodipodi:cx="86.496925"
         sodipodi:cy="1230.5748"
         sodipodi:r1="97.197571"
         sodipodi:r2="37.398808"
         sodipodi:arg1="-1.5707963"
         sodipodi:arg2="0"
         inkscape:rounded="0"
         inkscape:randomized="0"
         transform="matrix(2.7887977,0,0,1.4309594,44.808154,-417.56464)"
         d="m 86.496928,1133.3773 37.398802,97.1975 -37.398807,97.1976 -37.398805,-97.1976 z" />
      <ellipse
         style="fill:#ffffff;fill-opacity:1;stroke:#000000;stroke-width:11.1188;stroke-linecap:square;stroke-linejoin:round;stroke-miterlimit:4;stroke-dasharray:none;stroke-opacity:1"
         id="path18132"
         cx="286.03058"
         cy="1196.9369"
         rx="31.804338"
         ry="31.299509" />
      <path
         id="path18510"
         style="fill:#ffffff;fill-opacity:1;stroke:#000000;stroke-width:11.1188;stroke-linecap:square;stroke-linejoin:round;stroke-miterlimit:4;stroke-dasharray:none;stroke-opacity:1"
         d="m 285.9576,1403.9995 c -54.67696,0.093 -101.09928,37.3199 -109.29424,87.6486 h 5.00894 c 18.62227,-24.2018 59.39917,-28.4346 104.35828,-28.4879 45.04001,0 85.92578,4.2427 104.58163,28.4879 h 4.78558 c -8.20343,-50.3802 -54.70721,-87.6243 -109.44019,-87.6486 z"
         sodipodi:nodetypes="ccccccc" />
      <ellipse
         style="fill:#ffffff;fill-opacity:1;stroke:#000000;stroke-width:11.1188;stroke-linecap:square;stroke-linejoin:round;stroke-miterlimit:4;stroke-dasharray:none;stroke-opacity:1"
         id="path19877"
         cx="286.03058"
         cy="1491.7582"
         rx="109.32692"
         ry="28.049168" />
      <path
         id="rect20061"
         style="fill:#ffffff;fill-opacity:1;stroke:#000000;stroke-width:11.1188;stroke-linecap:square;stroke-linejoin:round;stroke-miterlimit:4;stroke-dasharray:none;stroke-opacity:1"
         d="m 284.01729,1307.8649 v 23.3617 h -23.36353 v 4.0284 h 23.36353 v 23.3618 h 4.02657 v -23.3618 h 23.36354 v -4.0284 h -23.36354 v -23.3617 z" />
    </g>
    <path
       id="path25669"
       style="fill:#000000;fill-opacity:1;stroke:#ffffff;stroke-width:10;stroke-linecap:square;stroke-linejoin:round;stroke-miterlimit:4;stroke-dasharray:none;stroke-opacity:1"
       d="m 846.37096,1449.7555 c -1.22644,3.4168 -2.46956,6.6792 -3.71971,9.8681 l -19.2597,14.142 c 1.72161,5.531 3.45556,10.7078 5.1996,15.7079 -29.66786,51.1195 -71.57364,53.9032 -161.79213,24.3229 l -34.24347,24.7826 1.14824,49.689 43.61408,-4.6222 c 96.30814,1.9116 141.86732,4.0114 173.91262,-45.2095 32.04535,49.2218 77.60388,47.1211 173.91261,45.2095 l 43.6162,4.6222 1.1482,-49.689 -34.2455,-24.7826 c -90.21726,29.58 -132.12227,26.7967 -161.79005,-24.3207 1.74424,-5.0007 3.47567,-10.1785 5.19749,-15.7101 l -19.25972,-14.142 c -1.25012,-3.1888 -2.49119,-6.4513 -3.71759,-9.8681 l -4.86164,3.5686 z" />
    <path
       sodipodi:type="star"
       style="fill:#000000;fill-opacity:1;stroke:#ffffff;stroke-width:5.5659;stroke-linecap:square;stroke-linejoin:round;stroke-miterlimit:4;stroke-dasharray:none;stroke-opacity:1"
       id="path25671"
       inkscape:flatsided="false"
       sodipodi:sides="2"
       sodipodi:cx="86.496925"
       sodipodi:cy="1230.5748"
       sodipodi:r1="97.197571"
       sodipodi:r2="37.398808"
       sodipodi:arg1="-1.5707963"
       sodipodi:arg2="0"
       inkscape:rounded="0"
       inkscape:randomized="0"
       transform="matrix(2.5081863,0,0,1.2869749,634.28114,-237.38845)"
       d="m 86.496928,1133.3773 37.398802,97.1975 -37.398807,97.1976 -37.398805,-97.1976 z" />
    <ellipse
       style="fill:#000000;fill-opacity:1;stroke:#ffffff;stroke-width:10;stroke-linecap:square;stroke-linejoin:round;stroke-miterlimit:4;stroke-dasharray:none;stroke-opacity:1"
       id="ellipse25673"
       cx="851.23151"
       cy="1214.6604"
       rx="28.604156"
       ry="28.150124" />
    <path
       id="path25675"
       style="fill:#000000;fill-opacity:1;stroke:#ffffff;stroke-width:10;stroke-linecap:square;stroke-linejoin:round;stroke-miterlimit:4;stroke-dasharray:none;stroke-opacity:1"
       d="m 851.1659,1400.8882 c -49.17531,0.084 -90.92658,33.5647 -98.29695,78.8293 h 4.50493 c 16.74848,-21.7666 53.42237,-25.5735 93.85766,-25.6214 40.50804,0 77.27985,3.8158 94.05853,25.6214 h 4.30405 c -7.378,-45.3109 -49.20252,-78.8074 -98.42822,-78.8293 z"
       sodipodi:nodetypes="ccccccc" />
    <ellipse
       style="fill:#000000;fill-opacity:1;stroke:#ffffff;stroke-width:10;stroke-linecap:square;stroke-linejoin:round;stroke-miterlimit:4;stroke-dasharray:none;stroke-opacity:1"
       id="ellipse25677"
       cx="851.23151"
       cy="1479.8165"
       rx="98.32634"
       ry="25.226835" />
    <path
       id="path25679"
       style="fill:none;fill-opacity:1;stroke:#ffffff;stroke-width:8.99379;stroke-linecap:square;stroke-linejoin:round;stroke-miterlimit:4;stroke-dasharray:none;stroke-opacity:1"
       d="m 849.42083,1314.4268 v 21.011 h -21.01267 v 3.623 h 21.01267 v 21.0112 h 3.62141 v -21.0112 h 21.01268 v -3.623 h -21.01268 v -21.011 z" />
    <g
       id="g26824"
       transform="matrix(0.93385303,0,0,0.93385303,14.411458,359.79138)"
       style="stroke-width:10.7083;stroke-miterlimit:4;stroke-dasharray:none">
      <rect
         style="fill:#ffffff;fill-opacity:1;stroke:#000000;stroke-width:10.7083;stroke-linecap:square;stroke-linejoin:round;stroke-miterlimit:4;stroke-dasharray:none;stroke-opacity:1"
         id="rect26057"
         width="228.11049"
         height="185.98018"
         x="141.94476"
         y="1665.8484" />
      <path
         id="rect26271"
         style="fill:#ffffff;stroke:#000000;stroke-width:10.7083;stroke-linecap:square;stroke-linejoin:round;stroke-miterlimit:4;stroke-dasharray:none"
         d="m 95.72303,1634.1528 h 320.55394 l -19.18465,27.4494 H 114.90769 Z"
         sodipodi:nodetypes="ccccc" />
      <path
         id="rect26273"
         style="fill:#ffffff;fill-opacity:1;stroke:#000000;stroke-width:10.7083;stroke-linecap:square;stroke-linejoin:round;stroke-miterlimit:4;stroke-dasharray:none;stroke-opacity:1"
         d="m 95.722656,1548.6997 v 85.4526 H 416.27734 v -85.4526 h -47.9082 v 50.1213 h -75 v -50.1213 h -75.01953 v 50.1213 h -75 v -50.1213 z" />
      <path
         id="path26586"
         style="fill:#ffffff;stroke:#000000;stroke-width:10.7083;stroke-linecap:square;stroke-linejoin:round;stroke-miterlimit:4;stroke-dasharray:none"
         d="m 97.47429,1886.814 h 317.05142 l -18.97503,-34.368 H 116.44933 Z"
         sodipodi:nodetypes="ccccc" />
      <rect
         style="fill:#ffffff;fill-opacity:1;stroke:#000000;stroke-width:10.7083;stroke-linecap:square;stroke-linejoin:round;stroke-miterlimit:4;stroke-dasharray:none;stroke-opacity:1"
         id="rect26588"
         width="315.95102"
         height="48.359612"
         x="98.02449"
         y="1889.4288" />
      <rect
         style="fill:#ffffff;fill-opacity:1;stroke:#000000;stroke-width:10.7083;stroke-linecap:square;stroke-linejoin:round;stroke-miterlimit:4;stroke-dasharray:none;stroke-opacity:1"
         id="rect26590"
         width="380.63385"
         height="21.952734"
         x="65.683075"
         y="1936.1742" />
    </g>
    <g
       id="g26838"
       transform="matrix(0.93385303,0,0,0.93385303,607.12082,372.40221)"
       style="fill:#000000;fill-opacity:1;stroke:#ffffff;stroke-width:10.7083;stroke-miterlimit:4;stroke-dasharray:none;stroke-opacity:1">
      <rect
         style="fill:#000000;fill-opacity:1;stroke:#ffffff;stroke-width:10.7083;stroke-linecap:square;stroke-linejoin:round;stroke-miterlimit:4;stroke-dasharray:none;stroke-opacity:1"
         id="rect26826"
         width="228.11049"
         height="185.98018"
         x="141.94476"
         y="1665.8484" />
      <path
         id="path26828"
         style="fill:#000000;fill-opacity:1;stroke:#ffffff;stroke-width:10.7083;stroke-linecap:square;stroke-linejoin:round;stroke-miterlimit:4;stroke-dasharray:none;stroke-opacity:1"
         d="m 95.72303,1634.1528 h 320.55394 l -19.18465,27.4494 H 114.90769 Z"
         sodipodi:nodetypes="ccccc" />
      <path
         id="path26830"
         style="fill:#000000;fill-opacity:1;stroke:#ffffff;stroke-width:10.7083;stroke-linecap:square;stroke-linejoin:round;stroke-miterlimit:4;stroke-dasharray:none;stroke-opacity:1"
         d="m 95.722656,1548.6997 v 85.4526 H 416.27734 v -85.4526 h -47.9082 v 50.1213 h -75 v -50.1213 h -75.01953 v 50.1213 h -75 v -50.1213 z" />
      <path
         id="path26832"
         style="fill:#000000;fill-opacity:1;stroke:#ffffff;stroke-width:10.7083;stroke-linecap:square;stroke-linejoin:round;stroke-miterlimit:4;stroke-dasharray:none;stroke-opacity:1"
         d="m 97.47429,1886.814 h 317.05142 l -18.97503,-34.368 H 116.44933 Z"
         sodipodi:nodetypes="ccccc" />
      <rect
         style="fill:#000000;fill-opacity:1;stroke:#ffffff;stroke-width:10.7083;stroke-linecap:square;stroke-linejoin:round;stroke-miterlimit:4;stroke-dasharray:none;stroke-opacity:1"
         id="rect26834"
         width="315.95102"
         height="48.359612"
         x="98.02449"
         y="1889.4288" />
      <rect
         style="fill:#000000;fill-opacity:1;stroke:#ffffff;stroke-width:10.7083;stroke-linecap:square;stroke-linejoin:round;stroke-miterlimit:4;stroke-dasharray:none;stroke-opacity:1"
         id="rect26836"
         width="380.63385"
         height="21.952734"
         x="65.683075"
         y="1936.1742" />
    </g>
  </g>
</svg>
